<svg width="1923.224609" height="1780.073364" viewBox="0 0 1923.22 1780.07" fill="none" xmlns="http://www.w3.org/2000/svg" xmlns:xlink="http://www.w3.org/1999/xlink">
	<desc>
			Created with Pixso.
	</desc>
	<defs>
		<filter id="filter_106_410_dd" x="437.990234" y="-916.947754" width="2335.258057" height="2918.497314" filterUnits="userSpaceOnUse" color-interpolation-filters="sRGB">
			<feFlood flood-opacity="0" result="BackgroundImageFix"/>
			<feBlend mode="normal" in="SourceGraphic" in2="BackgroundImageFix" result="shape"/>
			<feGaussianBlur stdDeviation="133.333" result="effect_layerBlur_1"/>
		</filter>
		<filter id="filter_106_411_dd" x="427.130005" y="-864.093262" width="2090.294434" height="2580.469727" filterUnits="userSpaceOnUse" color-interpolation-filters="sRGB">
			<feFlood flood-opacity="0" result="BackgroundImageFix"/>
			<feBlend mode="normal" in="SourceGraphic" in2="BackgroundImageFix" result="shape"/>
			<feGaussianBlur stdDeviation="133.333" result="effect_layerBlur_1"/>
		</filter>
		<filter id="filter_106_412_dd" x="-935.907227" y="-415.709473" width="2498.072021" height="2386.566406" filterUnits="userSpaceOnUse" color-interpolation-filters="sRGB">
			<feFlood flood-opacity="0" result="BackgroundImageFix"/>
			<feBlend mode="normal" in="SourceGraphic" in2="BackgroundImageFix" result="shape"/>
			<feGaussianBlur stdDeviation="133.333" result="effect_layerBlur_1"/>
		</filter>
		<filter id="filter_106_413_dd" x="437.990234" y="-916.947754" width="2335.258057" height="2918.497314" filterUnits="userSpaceOnUse" color-interpolation-filters="sRGB">
			<feFlood flood-opacity="0" result="BackgroundImageFix"/>
			<feBlend mode="normal" in="SourceGraphic" in2="BackgroundImageFix" result="shape"/>
			<feGaussianBlur stdDeviation="133.333" result="effect_layerBlur_1"/>
		</filter>
		<filter id="filter_106_414_dd" x="427.130005" y="-864.093262" width="2090.294434" height="2580.469727" filterUnits="userSpaceOnUse" color-interpolation-filters="sRGB">
			<feFlood flood-opacity="0" result="BackgroundImageFix"/>
			<feBlend mode="normal" in="SourceGraphic" in2="BackgroundImageFix" result="shape"/>
			<feGaussianBlur stdDeviation="133.333" result="effect_layerBlur_1"/>
		</filter>
		<filter id="filter_106_415_dd" x="-935.907227" y="-415.709473" width="2498.072021" height="2386.566406" filterUnits="userSpaceOnUse" color-interpolation-filters="sRGB">
			<feFlood flood-opacity="0" result="BackgroundImageFix"/>
			<feBlend mode="normal" in="SourceGraphic" in2="BackgroundImageFix" result="shape"/>
			<feGaussianBlur stdDeviation="133.333" result="effect_layerBlur_1"/>
		</filter>
		<linearGradient x1="769.989807" y1="-184.800903" x2="2468.229492" y2="1269.403198" id="paint_linear_106_410_0" gradientUnits="userSpaceOnUse">
			<stop stop-color="#4DB5F8"/>
			<stop offset="1.000000" stop-color="#E03CE0"/>
		</linearGradient>
		<linearGradient x1="769.981628" y1="-184.943359" x2="2197.250000" y2="1037.227417" id="paint_linear_106_411_0" gradientUnits="userSpaceOnUse">
			<stop stop-color="#4DB5F8"/>
			<stop offset="1.000000" stop-color="#E03CE0"/>
		</linearGradient>
		<linearGradient x1="1113.223389" y1="646.738892" x2="-486.968567" y2="979.219482" id="paint_linear_106_412_0" gradientUnits="userSpaceOnUse">
			<stop stop-color="#FF12DC"/>
			<stop offset="1.000000" stop-color="#FFB912"/>
		</linearGradient>
		<linearGradient x1="769.989807" y1="-184.800903" x2="2468.229492" y2="1269.403198" id="paint_linear_106_413_0" gradientUnits="userSpaceOnUse">
			<stop stop-color="#4DB5F8"/>
			<stop offset="1.000000" stop-color="#E03CE0"/>
		</linearGradient>
		<linearGradient x1="769.981628" y1="-184.943359" x2="2197.250000" y2="1037.227417" id="paint_linear_106_414_0" gradientUnits="userSpaceOnUse">
			<stop stop-color="#4DB5F8"/>
			<stop offset="1.000000" stop-color="#E03CE0"/>
		</linearGradient>
		<linearGradient x1="1113.223389" y1="646.738892" x2="-486.968567" y2="979.219482" id="paint_linear_106_415_0" gradientUnits="userSpaceOnUse">
			<stop stop-color="#FF12DC"/>
			<stop offset="1.000000" stop-color="#FFB912"/>
		</linearGradient>
	</defs>
	<path id="Vector" d="M1923.17 1718.62C1611.9 1850.52 938.97 1740.57 632.35 1663.22C395.3 1605.25 192.43 1631.69 0 1767.56L3.01 141.47C20.58 156.86 64.25 116.44 79.85 104.89C404.6 -137.8 705.88 318.17 1009.24 82.32C1301.15 -166.06 1624.28 241.43 1923.22 89.42L1923.17 1718.62Z" fill="#8F33FF" fill-opacity="1.000000" fill-rule="nonzero"/>
	<mask id="mask106_408" mask-type="alpha" maskUnits="userSpaceOnUse" x="0.000000" y="48.970215" width="1923.224487" height="1616.497559">
		<path id="Vector" d="M1923.22 1645.43C1806.36 1662.91 1814.15 1630.61 1615.48 1579.57C1392.11 1530.95 1102.03 1717.34 743.36 1628.03C489.46 1566.92 369.62 1545.96 116.74 1640.11C69.21 1657.78 47 1678.57 0.64 1654.72L0 166.79C15.85 168.35 35.87 164.43 72.26 133.48C399.01 -96.02 658.85 352.65 964.06 129.62C1462.82 -124.64 1855.87 318.4 1922.16 154.74L1923.22 1645.43Z" fill="#7415ED" fill-opacity="1.000000" fill-rule="nonzero"/>
	</mask>
	<g mask="url(#mask106_408)">
		<g opacity="0.600000">
			<g filter="url(#filter_106_410_dd)">
				<path id="Vector" d="M868 1601.55L837.99 1054.49C1450.18 927.42 1917.65 268.17 1880.16 -415.23L2370.21 -516.95C2424.26 468.03 1750.36 1418.41 868 1601.55Z" fill="url(#paint_linear_106_410_0)" fill-opacity="1.000000" fill-rule="nonzero"/>
			</g>
			<g filter="url(#filter_106_411_dd)">
				<path id="Vector" d="M852.36 1316.38L827.13 856.56C1341.56 749.79 1734.48 195.67 1702.97 -378.6L2114.87 -464.1C2160.3 363.78 1593.85 1162.47 852.36 1316.38Z" fill="url(#paint_linear_106_411_0)" fill-opacity="1.000000" fill-rule="nonzero"/>
			</g>
			<g filter="url(#filter_106_412_dd)">
				<path id="Vector" d="M1162.16 1539.99L1132.18 992.93C520.01 1120.13 -8.42 667.69 -45.88 -15.71L-535.91 86.1C-481.92 1071.09 279.85 1723.31 1162.16 1539.99Z" fill="url(#paint_linear_106_412_0)" fill-opacity="1.000000" fill-rule="nonzero"/>
			</g>
			<g filter="url(#filter_106_413_dd)">
				<path id="Vector" d="M868 1601.55L837.99 1054.49C1450.18 927.42 1917.65 268.17 1880.16 -415.23L2370.21 -516.95C2424.26 468.03 1750.36 1418.41 868 1601.55Z" fill="url(#paint_linear_106_413_0)" fill-opacity="1.000000" fill-rule="nonzero"/>
			</g>
			<g filter="url(#filter_106_414_dd)">
				<path id="Vector" d="M852.36 1316.38L827.13 856.56C1341.56 749.79 1734.48 195.67 1702.97 -378.6L2114.87 -464.1C2160.3 363.78 1593.85 1162.47 852.36 1316.38Z" fill="url(#paint_linear_106_414_0)" fill-opacity="1.000000" fill-rule="nonzero"/>
			</g>
			<g filter="url(#filter_106_415_dd)">
				<path id="Vector" d="M1162.16 1539.99L1132.18 992.93C520.01 1120.13 -8.42 667.69 -45.88 -15.71L-535.91 86.1C-481.92 1071.09 279.85 1723.31 1162.16 1539.99Z" fill="url(#paint_linear_106_415_0)" fill-opacity="1.000000" fill-rule="nonzero"/>
			</g>
		</g>
	</g>
</svg>
