<svg width="209.017578" height="59.640137" viewBox="0 0 209.018 59.6401" fill="none" xmlns="http://www.w3.org/2000/svg" xmlns:xlink="http://www.w3.org/1999/xlink">
	<desc>
			Created with Pixso.
	</desc>
	<defs/>
	<path id="Vector" d="M104.65 59.18C129.86 58.44 181.34 53.31 192.41 52.1C203.47 50.89 207.58 48.39 208.74 41.53C209.9 34.66 207.27 28.26 202.45 25.53C202.45 25.53 204.83 19.82 204.67 15.34C204.51 10.87 201.31 4.64 195.92 2.82C190.52 1 154.79 -0.09 136.35 0C117.92 0.09 68.7 1.82 50.69 1.91C32.67 2.01 14.06 3.22 8.59 4.01C3.12 4.79 -0.18 11.63 0 16.49C0.18 21.36 0.05 24.95 4.3 27.57C4.3 27.57 1.48 33.04 2.11 38.7C2.74 44.36 5.51 53.81 20.03 57C34.56 60.19 79.44 59.89 104.65 59.15L104.65 59.18Z" fill="#8F33FF" fill-opacity="1.000000" fill-rule="evenodd"/>
</svg>
