<svg width="309" height="78" viewBox="0 0 309 78" fill="none" xmlns="http://www.w3.org/2000/svg">
<path d="M154.542 76.5488C191.626 75.5967 267.348 68.9931 283.627 67.4385C299.896 65.8836 305.95 62.6661 307.653 53.836C309.357 45.0059 305.487 36.7692 298.402 33.2593C298.402 33.2593 301.907 25.9045 301.665 20.1477C301.422 14.391 296.729 6.38235 288.792 4.04213C280.856 1.70192 228.297 0.296025 201.181 0.409732C174.065 0.523638 101.678 2.74607 75.1765 2.87345C48.6741 3.00103 21.3045 4.55511 13.2605 5.56477C5.21425 6.57443 0.363323 15.3666 0.627452 21.6272C0.89158 27.8879 0.69114 32.5101 6.94517 35.8839C6.94517 35.8839 2.79703 42.9137 3.72852 50.1961C4.66004 57.4782 8.72562 69.6391 30.0889 73.7456C51.4521 77.852 117.468 77.4584 154.543 76.5167L154.542 76.5488Z" fill="#7415ED"/>
</svg>
