<svg width="115" height="55" viewBox="0 0 115 55" fill="none" xmlns="http://www.w3.org/2000/svg">
<path d="M114.736 32.9453C114.736 44.8397 105.462 54.4819 94.0212 54.4819C82.5807 54.4819 73.3064 44.8397 73.3064 32.9453C73.3064 21.051 82.5807 11.4087 94.0212 11.4087C105.462 11.4087 114.736 21.051 114.736 32.9453Z" fill="url(#paint0_linear_6049_557)"/>
<path d="M102.895 24.7142C102.895 29.3959 99.0146 33.1911 94.2279 33.1911C89.4413 33.1911 85.5609 29.3959 85.5609 24.7142C85.5609 20.0325 89.4413 16.2373 94.2279 16.2373C99.0146 16.2373 102.895 20.0325 102.895 24.7142Z" fill="#171630"/>
<path d="M94.6761 21.5718C94.6761 22.8231 93.6391 23.8374 92.3597 23.8374C91.0804 23.8374 90.0433 22.8231 90.0433 21.5718C90.0433 20.3205 91.0804 19.3062 92.3597 19.3062C93.6391 19.3062 94.6761 20.3205 94.6761 21.5718Z" fill="#D9D9D9"/>
<path d="M42.0075 21.5898C42.0075 33.5133 32.7104 43.1792 21.2419 43.1792C9.77338 43.1792 0.476318 33.5133 0.476318 21.5898C0.476318 9.66637 9.77338 0.000488281 21.2419 0.000488281C32.7104 0.000488281 42.0075 9.66637 42.0075 21.5898Z" fill="url(#paint1_linear_6049_557)"/>
<path d="M30.1737 12.6769C30.1737 17.37 26.2838 21.1745 21.4855 21.1745C16.6871 21.1745 12.7972 17.37 12.7972 12.6769C12.7972 7.98374 16.6871 4.1792 21.4855 4.1792C26.2838 4.1792 30.1737 7.98374 30.1737 12.6769Z" fill="#171630"/>
<path d="M21.9348 9.5272C21.9348 10.7815 20.8952 11.7984 19.6127 11.7984C18.3303 11.7984 17.2906 10.7815 17.2906 9.5272C17.2906 8.27288 18.3303 7.25605 19.6127 7.25605C20.8952 7.25605 21.9348 8.27288 21.9348 9.5272Z" fill="#D9D9D9"/>
<defs>
<linearGradient id="paint0_linear_6049_557" x1="78.5265" y1="25.4475" x2="116.1" y2="42.0063" gradientUnits="userSpaceOnUse">
<stop stop-color="#FFFEFE"/>
<stop offset="1" stop-color="#EBD9DC"/>
</linearGradient>
<linearGradient id="paint1_linear_6049_557" x1="5.70919" y1="14.0737" x2="43.3751" y2="30.673" gradientUnits="userSpaceOnUse">
<stop stop-color="#FFFEFE"/>
<stop offset="1" stop-color="#EBD9DC"/>
</linearGradient>
</defs>
</svg>
