<svg width="193" height="32" viewBox="0 0 193 32" fill="none" xmlns="http://www.w3.org/2000/svg">
<path fill-rule="evenodd" clip-rule="evenodd" d="M157.249 2.14273C157.249 2.53311 157.149 2.89868 156.974 3.21346C157.254 3.45077 157.56 3.76025 157.772 4.11599C158.024 4.52352 158.256 5.19338 158.282 5.96379C164.081 6.67704 168.718 11.975 168.539 18.5564C168.539 19.0085 168.313 20.8694 163.681 20.4996L163.653 20.7872C163.653 20.8019 163.652 20.8166 163.651 20.8312C163.649 20.8459 163.648 20.8606 163.648 20.8753V20.9222C163.626 21.4975 162.702 21.4975 162.636 21.4975H162.63C162.592 21.4975 162.272 21.4858 161.981 21.3743C161.936 21.3551 161.888 21.3399 161.841 21.3254L161.825 21.3204L161.81 21.3155C161.535 21.2334 161.293 21.157 161.343 20.5759L161.387 20.1943C161.36 20.1879 161.333 20.1833 161.305 20.1785L161.304 20.1783C161.281 20.1743 161.257 20.1702 161.233 20.1649C159.076 19.7599 157.789 19.3548 156.419 18.486L156.155 18.9145C156.138 18.938 156.127 18.9615 156.116 18.9908C156.113 18.9967 156.109 19.0041 156.105 19.0114C156.101 19.0187 156.097 19.0261 156.094 19.0319C155.832 19.5112 155.05 19.0866 154.956 19.0354L154.95 19.0319C154.95 19.0319 154.944 19.0319 154.944 19.0261C154.911 19.0085 154.636 18.8382 154.427 18.5917C154.388 18.5447 154.344 18.4977 154.3 18.4566C154.091 18.2453 153.915 18.0574 154.218 17.5702L154.548 17.0595C152.848 15.5331 151.83 13.7309 151.83 13.7309C151.83 13.7309 150.57 16.3609 151.638 19.12C152.504 21.5133 154.073 22.9467 155.803 23.743L156.122 22.9653C156.122 22.9653 156.177 22.7422 156.452 22.754C156.727 22.7657 157.954 23.2412 157.954 23.2412C157.954 23.2412 158.295 23.4115 158.278 23.57C158.266 23.6897 158.109 24.1944 158.033 24.4343C159.384 24.6766 160.695 24.626 161.722 24.4269C163.109 24.1569 163.995 23.8927 165.095 23.4583L167.296 22.3429C167.791 22.1903 167.813 22.6305 167.736 22.836C165.777 27.9433 161.332 30.5792 156.947 30.5792C150.543 30.5792 145.355 25.0492 145.355 18.2277C145.355 11.4062 150.543 5.88205 156.947 5.88205C157.232 5.88205 157.515 5.89315 157.796 5.91498C157.762 5.27324 157.568 4.72215 157.367 4.39886L157.365 4.39646L157.364 4.39402C157.193 4.10589 156.934 3.83951 156.679 3.62249C156.303 4.03124 155.773 4.28545 155.186 4.28545C154.047 4.28545 153.123 3.32857 153.123 2.14273C153.123 0.956889 154.047 0 155.186 0C156.325 0 157.249 0.956889 157.249 2.14273ZM163.455 12.9856C163.455 15.3523 161.67 17.271 159.467 17.271C157.264 17.271 155.478 15.3523 155.478 12.9856C155.478 12.9493 155.478 12.9132 155.479 12.8772C155.513 13.7851 156.214 14.5117 157.073 14.5117C157.954 14.5117 158.669 13.7486 158.669 12.8093C158.669 12.5803 158.625 12.369 158.553 12.1694C158.509 12.4982 158.245 12.7506 157.926 12.7506C157.574 12.7506 157.293 12.4512 157.293 12.0755C157.293 11.6998 157.574 11.4004 157.926 11.4004H157.97C157.712 11.2125 157.403 11.1069 157.073 11.1069C156.287 11.1069 155.632 11.7161 155.502 12.5158C155.719 10.37 157.411 8.7001 159.467 8.7001C161.67 8.7001 163.455 10.6188 163.455 12.9856Z" fill="white"/>
<path d="M59.9862 31.9554C57.6414 31.9554 55.4896 31.6308 53.5308 30.9816C51.5867 30.3325 49.9024 29.3428 48.4777 28.0128C47.0679 26.6827 45.9772 25.0122 45.2055 23.0013C44.4338 20.9745 44.048 18.5994 44.048 15.876C44.048 13.5009 44.3967 11.4345 45.0942 9.67696C45.7917 7.90354 46.7414 6.40723 47.9435 5.18801C49.1604 3.96878 50.5479 2.98708 52.1061 2.24288C53.6791 1.49868 55.3412 0.960319 57.0924 0.627804C58.8583 0.295288 60.6169 0.129032 62.368 0.129032C63.4513 0.129032 64.5272 0.239872 65.5957 0.461548C66.679 0.66739 67.6659 0.984072 68.5563 1.41159C69.4467 1.83911 70.159 2.36163 70.6932 2.97916C71.2275 3.59669 71.4946 4.3013 71.4946 5.093C71.4946 6.16972 71.1681 6.97725 70.5152 7.51561C69.8622 8.05397 69.0386 8.32314 68.0443 8.32314C67.4952 8.32314 66.9907 8.27564 66.5306 8.18064C66.0854 8.08564 65.6328 7.9748 65.1728 7.84812C64.7275 7.72145 64.2304 7.61061 63.6813 7.51561C63.1322 7.42061 62.4867 7.3731 61.7447 7.3731C60.602 7.3731 59.5855 7.57895 58.6951 7.99063C57.8047 8.40231 57.0478 8.98818 56.4246 9.74821C55.8013 10.5082 55.3264 11.4187 54.9999 12.4796C54.6734 13.5246 54.5102 14.6963 54.5102 15.9947C54.5102 17.7523 54.7996 19.2328 55.3783 20.4362C55.9571 21.6396 56.8104 22.55 57.9382 23.1676C59.0661 23.7851 60.4462 24.0938 62.0786 24.0938C62.6277 24.0938 63.1471 24.0463 63.6368 23.9513C64.1265 23.8405 64.5569 23.6901 64.9279 23.5001C65.2989 23.2942 65.5883 23.025 65.796 22.6925C66.0038 22.36 66.1077 21.9562 66.1077 21.4812C66.1077 21.0537 65.9741 20.6816 65.707 20.3649C65.4547 20.0324 65.0615 19.7553 64.5272 19.5336C63.993 19.2961 63.3177 19.114 62.5015 18.9874C61.4776 18.8132 60.6391 18.4728 59.9862 17.9661C59.348 17.4436 59.029 16.6123 59.029 15.4722C59.029 14.5538 59.3332 13.8255 59.9416 13.2871C60.5501 12.7329 61.3589 12.3371 62.368 12.0996C63.3771 11.8621 64.4901 11.7433 65.707 11.7433C67.3097 11.7433 68.764 11.9096 70.07 12.2421C71.3759 12.5746 72.4963 13.0892 73.4312 13.7859C74.3662 14.4668 75.0859 15.3535 75.5905 16.446C76.095 17.5386 76.3473 18.8369 76.3473 20.3412C76.3473 22.6529 75.9318 24.5689 75.1007 26.0889C74.2697 27.5932 73.1048 28.7807 71.6059 29.6516C70.1219 30.5066 68.393 31.1004 66.4193 31.4329C64.4456 31.7813 62.3012 31.9554 59.9862 31.9554Z" fill="white"/>
<path d="M1.84758 31.1406C2.5599 31.6314 3.55419 31.8769 4.83043 31.8769C6.00279 31.8769 6.99707 31.6473 7.81327 31.1881C8.64432 30.7289 9.32696 30.0322 9.8612 29.098C10.0541 28.7496 10.2248 28.3063 10.3732 27.7679C10.5364 27.2296 10.6848 26.6437 10.8184 26.0104C10.9519 25.3612 11.0632 24.6803 11.1523 23.9678C11.2562 23.2394 11.3378 22.5189 11.3971 21.8064C11.4713 21.078 11.5233 20.3734 11.553 19.6926C11.5826 18.9959 11.5975 18.3625 11.5975 17.7925C11.5975 15.8449 11.2487 14.309 10.5513 13.1848C9.85378 12.0447 8.76304 11.4747 7.27904 11.4747C5.67631 11.4747 4.36297 11.8389 3.33901 12.5673C2.32988 13.2956 1.56562 14.3486 1.04622 15.7261C0.942342 16.0903 0.838461 16.5178 0.734583 17.0087C0.645541 17.4837 0.56392 18.0062 0.489721 18.5763C0.415522 19.1463 0.341322 19.7401 0.267119 20.3576C0.207759 20.9593 0.15582 21.5689 0.111299 22.1864C0.0816208 22.7881 0.0519388 23.3819 0.0222605 23.9678C0.00742141 24.5536 0 25.092 0 25.5828C0 26.9446 0.13356 28.0925 0.400682 29.0267C0.667802 29.9609 1.1501 30.6656 1.84758 31.1406Z" fill="white"/>
<path d="M6.72253 9.0046C4.86753 9.0046 3.53935 8.68 2.73798 8.03081C1.95147 7.38161 1.55821 6.63741 1.55821 5.79821C1.55821 4.70566 1.92178 3.77937 2.64895 3.01934C3.39095 2.24347 4.31103 1.65761 5.40919 1.26176C6.52219 0.865907 7.6352 0.667984 8.7482 0.667984C9.57924 0.667984 10.3435 0.802573 11.041 1.07175C11.7385 1.34093 12.295 1.76845 12.7105 2.35431C13.1408 2.94017 13.356 3.70812 13.356 4.65816C13.356 5.71904 13.0518 6.56616 12.4434 7.19952C11.8349 7.83288 11.0261 8.29207 10.017 8.57708C9.0079 8.86209 7.90973 9.0046 6.72253 9.0046Z" fill="white"/>
<path d="M15.7214 30.9668C16.4486 31.4101 17.3687 31.6318 18.4817 31.6318C19.3572 31.6318 20.1586 31.513 20.8858 31.2755C21.6129 31.0538 22.2214 30.6501 22.7111 30.0642C23.2156 29.4625 23.5273 28.6154 23.646 27.5229C23.7499 26.6837 23.8463 25.8999 23.9354 25.1715C24.0244 24.4431 24.1209 23.7702 24.2248 23.1527C24.3286 22.5193 24.4399 21.9414 24.5587 21.4188C24.6922 20.8963 24.8406 20.4213 25.0039 19.9938C25.36 19.0279 25.7978 18.2995 26.3172 17.8087C26.8366 17.3178 27.4896 17.0724 28.2761 17.0724C29.122 17.0724 29.7898 17.3099 30.2795 17.7849C30.7692 18.2441 31.1476 18.9646 31.4148 19.9463C31.5335 20.3738 31.6374 20.8171 31.7264 21.2763C31.8303 21.7355 31.9267 22.2501 32.0158 22.8201C32.1048 23.3902 32.1864 24.0315 32.2606 24.744C32.3348 25.4407 32.409 26.2403 32.4832 27.1428C32.602 28.077 32.8097 28.8846 33.1065 29.5654C33.4033 30.2305 33.8856 30.7451 34.5534 31.1093C35.2361 31.4576 36.1858 31.6318 37.4027 31.6318C38.4564 31.6318 39.3542 31.3547 40.0962 30.8005C40.853 30.2463 41.4318 29.4388 41.8325 28.3779C41.966 28.0137 42.0699 27.6258 42.1441 27.2141C42.2331 26.7866 42.2999 26.3353 42.3444 25.8603C42.389 25.3853 42.4112 24.8786 42.4112 24.3402C42.4112 21.0309 41.7954 18.2362 40.5636 15.9561C39.3468 13.6602 37.655 11.9263 35.4883 10.7546C33.3365 9.56706 30.8508 8.97328 28.0312 8.97328C25.2413 8.97328 22.7853 9.5829 20.6632 10.8021C18.541 12.0055 16.8715 13.7552 15.6546 16.0511C14.4526 18.347 13.8219 21.1259 13.7625 24.3877C13.7329 25.0052 13.7254 25.5832 13.7403 26.1215C13.77 26.6441 13.8071 27.127 13.8516 27.5704C13.9109 28.0137 13.9926 28.4096 14.0964 28.7579C14.4526 29.7713 14.9943 30.5076 15.7214 30.9668Z" fill="white"/>
<path fill-rule="evenodd" clip-rule="evenodd" d="M88.4439 32C87.1825 32 85.9433 31.8733 84.7264 31.62C83.5095 31.3825 82.4114 30.9708 81.4319 30.3849C80.4673 29.8149 79.6956 29.047 79.1169 28.0811C78.5381 27.1152 78.2487 25.9197 78.2487 24.4947C78.2487 23.0854 78.5826 21.9137 79.2505 20.9795C79.9331 20.0453 80.8457 19.3011 81.9884 18.7469C83.1311 18.1927 84.4222 17.8048 85.8617 17.5831C87.316 17.3456 88.8148 17.2268 90.3582 17.2268C90.744 17.2268 91.1299 17.2427 91.5157 17.2743C91.9016 17.2902 92.2577 17.3139 92.5842 17.3456C92.9107 17.3614 93.1704 17.3693 93.3633 17.3693C93.7046 17.3693 93.9346 17.3139 94.0534 17.2031C94.1869 17.0764 94.2537 16.8706 94.2537 16.5856C94.2537 16.2847 94.2166 16.0155 94.1424 15.778C94.0682 15.5405 93.9643 15.3268 93.8308 15.1368C93.6972 14.9467 93.534 14.7884 93.3411 14.6617C92.9849 14.3926 92.5323 14.1946 91.9832 14.068C91.4341 13.9413 90.8331 13.8779 90.1801 13.8779C89.3491 13.8779 88.5255 13.9729 87.7093 14.163C86.8931 14.353 86.0843 14.543 85.2829 14.733C84.4964 14.923 83.7025 15.018 82.9011 15.018C81.5358 15.018 80.4748 14.7805 79.7179 14.3055C78.9611 13.8146 78.5827 13.0625 78.5827 12.0491C78.5827 11.0991 78.8869 10.2678 79.4953 9.55525C80.1038 8.82689 80.9274 8.23311 81.9662 7.77393C83.005 7.29891 84.1699 6.95056 85.461 6.72888C86.7669 6.49137 88.1025 6.37261 89.4678 6.37261C92.3023 6.37261 94.6915 6.68929 96.6355 7.32265C98.5796 7.95602 100.056 9.04857 101.065 10.6003C102.089 12.1362 102.601 14.2659 102.601 16.9893C102.601 17.591 102.572 18.1215 102.512 18.5807C102.468 19.0398 102.408 19.4436 102.334 19.792C102.275 20.1245 102.215 20.4253 102.156 20.6945C102.112 20.9637 102.089 21.217 102.089 21.4545C102.089 21.8979 102.23 22.3333 102.512 22.7608C102.809 23.1884 103.143 23.6317 103.514 24.0909C103.9 24.5501 104.234 25.0489 104.516 25.5872C104.798 26.1256 104.939 26.7352 104.939 27.416C104.939 28.4136 104.634 29.1499 104.026 29.6249C103.432 30.0999 102.742 30.3374 101.956 30.3374C101.332 30.3374 100.835 30.1712 100.464 29.8386C100.093 29.5061 99.7742 29.1736 99.5071 28.8411C99.24 28.5086 98.9432 28.3423 98.6167 28.3423C98.3792 28.3423 98.1121 28.4215 97.8153 28.5799C97.5334 28.7382 97.1995 28.9599 96.8136 29.2449C96.3536 29.5774 95.7526 29.9574 95.0106 30.3849C94.2834 30.8283 93.3856 31.2083 92.3171 31.525C91.2486 31.8417 89.9575 32 88.4439 32ZM89.2007 26.1572C89.7498 26.1572 90.2914 26.0781 90.8257 25.9197C91.3599 25.7456 91.8496 25.508 92.2949 25.2072C92.74 24.8905 93.0962 24.5184 93.3633 24.0909C93.6304 23.6634 93.764 23.1884 93.764 22.6658C93.764 22.27 93.6453 21.9771 93.4079 21.787C93.1704 21.597 92.8217 21.4624 92.3616 21.3833C91.9164 21.3041 91.3673 21.2645 90.7144 21.2645C89.9724 21.2645 89.2601 21.3516 88.5774 21.5258C87.8948 21.6841 87.3308 21.9612 86.8857 22.3571C86.4553 22.7529 86.2401 23.2992 86.2401 23.9959C86.2401 24.5026 86.3663 24.9143 86.6185 25.2309C86.8857 25.5476 87.2418 25.7851 87.687 25.9435C88.1322 26.086 88.6368 26.1572 89.2007 26.1572Z" fill="white"/>
<path d="M111.186 30.3748C110.192 30.3748 109.398 30.1135 108.804 29.591C108.226 29.0527 107.81 28.3243 107.558 27.4059C107.305 26.4875 107.179 25.4346 107.179 24.247C107.179 23.6612 107.194 23.0357 107.224 22.3707C107.268 21.6898 107.328 21.0011 107.402 20.3044C107.491 19.6077 107.602 18.911 107.736 18.2143C107.869 17.5176 108.033 16.8446 108.226 16.1954C108.433 15.5304 108.663 14.905 108.916 14.3191C109.88 12.2448 111.045 10.701 112.41 9.68764C113.791 8.67426 115.416 8.16757 117.285 8.16757C118.502 8.16757 119.504 8.42883 120.29 8.95135C121.077 9.45805 121.715 10.1152 122.205 10.9227C122.709 11.7302 123.11 12.5773 123.407 13.4641C123.644 14.1766 123.926 14.802 124.253 15.3404C124.579 15.8787 124.965 16.1479 125.41 16.1479C125.915 16.1479 126.36 15.95 126.746 15.5541C127.147 15.1583 127.569 14.5329 128.015 13.6778C128.504 12.7119 129.061 11.8411 129.684 11.0652C130.322 10.2735 131.094 9.64805 131.999 9.18887C132.919 8.72968 134.032 8.50009 135.338 8.50009C137.238 8.50009 138.759 8.99886 139.902 9.9964C141.044 10.9781 141.868 12.3478 142.372 14.1053C142.877 15.8629 143.129 17.8738 143.129 20.1381C143.129 20.8031 143.114 21.4682 143.085 22.1332C143.055 22.7824 143.011 23.4237 142.951 24.057C142.892 24.6746 142.81 25.2683 142.706 25.8384C142.602 26.4084 142.476 26.9388 142.328 27.4297C141.987 28.4272 141.504 29.1793 140.881 29.686C140.273 30.1769 139.449 30.4223 138.41 30.4223C137.446 30.4223 136.652 30.1927 136.028 29.7335C135.42 29.2743 134.952 28.6647 134.626 27.9047C134.567 27.6514 134.515 27.3822 134.47 27.0972C134.426 26.7963 134.388 26.4717 134.359 26.1234C134.329 25.775 134.299 25.4108 134.27 25.0308C134.24 24.635 134.218 24.2233 134.203 23.7958C134.188 23.3682 134.166 22.917 134.136 22.442C134.092 21.6503 133.995 20.9694 133.847 20.3994C133.713 19.8293 133.535 19.3939 133.313 19.0931C133.105 18.7764 132.838 18.618 132.511 18.618C132.155 18.618 131.814 18.816 131.487 19.2118C131.176 19.6077 130.879 20.1143 130.597 20.7319C130.315 21.3494 130.033 21.9907 129.751 22.6557C129.202 24.1124 128.586 25.1654 127.903 25.8146C127.221 26.448 126.249 26.7646 124.987 26.7646C123.711 26.7646 122.754 26.4005 122.116 25.6721C121.478 24.9437 121.01 24.0333 120.713 22.9407C120.491 22.0698 120.276 21.3336 120.068 20.7319C119.875 20.1302 119.66 19.6789 119.422 19.3781C119.185 19.0614 118.895 18.903 118.554 18.903C118.228 18.903 117.909 19.0614 117.597 19.3781C117.3 19.6789 117.018 20.1381 116.751 20.7556C116.514 21.3732 116.306 22.0224 116.128 22.7032C115.965 23.3682 115.824 24.0333 115.705 24.6983C115.601 25.3475 115.512 25.9729 115.438 26.5746C115.171 27.9839 114.733 28.9735 114.124 29.5435C113.516 30.0977 112.537 30.3748 111.186 30.3748Z" fill="white"/>
<path d="M181.38 30.4813C180.223 30.4813 179.132 30.4338 178.108 30.3388C177.084 30.2596 176.149 30.133 175.303 29.9588C174.457 29.7846 173.708 29.5709 173.055 29.3175C172.209 28.9692 171.512 28.5575 170.963 28.0825C170.428 27.6074 170.161 26.9107 170.161 25.9924C170.161 24.9632 170.428 24.1477 170.963 23.546C171.512 22.9443 172.32 22.6435 173.389 22.6435C173.982 22.6435 174.606 22.7226 175.259 22.881C175.927 23.0393 176.646 23.1977 177.418 23.356C178.204 23.5143 179.073 23.5935 180.022 23.5935C180.705 23.5935 181.321 23.5539 181.87 23.4748C182.434 23.3797 182.879 23.2135 183.206 22.976C183.532 22.7385 183.695 22.406 183.695 21.9784C183.695 21.5667 183.577 21.2342 183.339 20.9809C183.102 20.7276 182.649 20.498 181.981 20.2921C181.313 20.0863 180.341 19.8646 179.065 19.6271C177.373 19.3104 175.927 18.8591 174.724 18.2733C173.522 17.6716 172.602 16.9036 171.964 15.9694C171.326 15.0352 171.007 13.9031 171.007 12.573C171.007 11.3538 171.334 10.3167 171.986 9.46164C172.654 8.6066 173.552 7.9099 174.68 7.37154C175.823 6.83318 177.106 6.43733 178.531 6.18399C179.956 5.93065 181.432 5.80397 182.961 5.80397C183.985 5.80397 185.023 5.86731 186.077 5.99398C187.146 6.12066 188.125 6.3265 189.015 6.61151C189.921 6.89652 190.648 7.26862 191.197 7.72781C191.746 8.17116 192.021 8.71744 192.021 9.36663C192.021 10.19 191.835 10.855 191.464 11.3617C191.108 11.8684 190.648 12.2326 190.084 12.4543C189.535 12.6601 188.964 12.763 188.37 12.763C187.569 12.763 186.767 12.6839 185.966 12.5255C185.179 12.3513 184.482 12.2643 183.873 12.2643C183.384 12.2643 182.946 12.3118 182.56 12.4068C182.174 12.5018 181.87 12.6522 181.647 12.858C181.44 13.048 181.336 13.3093 181.336 13.6418C181.336 14.1327 181.67 14.5206 182.337 14.8056C183.005 15.0748 184.089 15.3519 185.587 15.6369C187.042 15.9061 188.325 16.3257 189.438 16.8957C190.551 17.4499 191.42 18.2099 192.043 19.1758C192.681 20.1259 193 21.3213 193 22.7622C193 24.0764 192.711 25.2165 192.132 26.1824C191.553 27.1483 190.744 27.9558 189.705 28.605C188.667 29.2383 187.442 29.7054 186.033 30.0063C184.623 30.323 183.072 30.4813 181.38 30.4813Z" fill="white"/>
</svg>
