<svg width="495" height="105" viewBox="0 0 495 105" fill="none" xmlns="http://www.w3.org/2000/svg">
<path d="M247.965 103.847C307.53 102.549 429.155 93.5509 455.302 91.4325C481.434 89.3139 491.158 84.9296 493.894 72.8976C496.629 60.8655 490.415 49.642 479.035 44.8593C479.035 44.8593 484.664 34.8375 484.275 26.9931C483.885 19.149 476.347 8.23617 463.599 5.04735C450.851 1.85852 366.431 -0.0571783 322.877 0.0977481C279.324 0.252957 163.054 3.28128 120.488 3.45485C77.9198 3.6287 33.9585 5.74632 21.0383 7.1221C8.11427 8.49788 0.3227 20.4782 0.746924 29.0091C1.17118 37.54 0.849248 43.8384 10.8945 48.4356C10.8945 48.4356 4.23172 58.0146 5.72791 67.9377C7.22409 77.8605 13.7543 94.4312 48.0681 100.027C82.3818 105.622 188.417 105.086 247.967 103.803L247.965 103.847Z" fill="#8F33FF"/>
</svg>
