<svg width="87.286377" height="76.010742" viewBox="0 0 87.2864 76.0107" fill="none" xmlns="http://www.w3.org/2000/svg" xmlns:xlink="http://www.w3.org/1999/xlink">
	<desc>
			Created with Pixso.
	</desc>
	<defs/>
	<path id="Vector" d="M68.19 35.37C77.73 33.6 85.32 38.7 87.04 48.03C88.59 56.43 82.49 64.79 72.48 66.65C61.52 68.68 51.87 61.78 49.5 48.96C44.12 19.81 64.37 4 78.17 0L80.54 12.82C71.31 16.22 62.26 27.3 63.64 37.42C64.07 37.1 65.8 35.81 68.19 35.37ZM19.57 44.37C29.1 42.61 36.7 47.71 38.42 57.04C39.97 65.44 33.88 73.8 23.87 75.65C12.9 77.69 3.25 70.79 0.88 57.97C-4.5 28.82 15.75 13.01 29.55 9L31.92 21.83C22.69 25.22 13.65 36.3 15.02 46.43C15.46 46.11 17.19 44.81 19.57 44.37Z" fill="#00CCFF" fill-opacity="1.000000" fill-rule="nonzero"/>
</svg>
