<svg width="198" height="77" viewBox="0 0 198 77" fill="none" xmlns="http://www.w3.org/2000/svg">
<path d="M99.3476 76.1455C123.131 75.1934 171.695 68.5898 182.135 67.0351C192.57 65.4803 196.452 62.2628 197.545 53.4327C198.637 44.6026 196.156 36.3659 191.612 32.856C191.612 32.856 193.86 25.5012 193.704 19.7443C193.548 13.9877 190.539 5.97903 185.448 3.63881C180.358 1.2986 146.65 -0.107297 129.259 0.00641033C111.869 0.120316 65.4434 2.34275 48.447 2.47013C31.4499 2.59771 13.8966 4.15179 8.73765 5.16144C3.5772 6.1711 0.4661 14.9632 0.635488 21.2239C0.804875 27.4845 0.676334 32.1068 4.68732 35.4806C4.68732 35.4806 2.02693 42.5104 2.62435 49.7927C3.22176 57.0749 5.82921 69.2358 19.5304 73.3422C33.2316 77.4487 75.5705 77.0551 99.3482 76.1134L99.3476 76.1455Z" fill="#8F33FF"/>
</svg>
