<svg width="122.283203" height="59.639893" viewBox="0 0 122.283 59.6399" fill="none" xmlns="http://www.w3.org/2000/svg" xmlns:xlink="http://www.w3.org/1999/xlink">
	<desc>
			Created with Pixso.
	</desc>
	<defs/>
	<path id="Vector" d="M61.22 59.18C75.97 58.44 106.09 53.31 112.56 52.1C119.03 50.89 121.44 48.39 122.12 41.52C122.8 34.66 121.26 28.26 118.44 25.53C118.44 25.53 119.83 19.82 119.74 15.34C119.64 10.87 117.77 4.64 114.62 2.82C111.46 1 90.56 -0.09 79.77 0C68.98 0.09 40.19 1.82 29.65 1.91C19.11 2.01 8.22 3.22 5.02 4.01C1.82 4.79 -0.11 11.62 0 16.49C0.1 21.36 0.02 24.95 2.51 27.57C2.51 27.57 0.86 33.04 1.23 38.7C1.6 44.36 3.22 53.81 11.72 57C20.21 60.19 46.47 59.88 61.22 59.15L61.22 59.18Z" fill="#8F33FF" fill-opacity="1.000000" fill-rule="evenodd"/>
</svg>
